<svg width="1621" height="922" viewBox="0 0 1621 922" fill="none" xmlns="http://www.w3.org/2000/svg">
<path d="M1623 46.8125C1623 46.8125 1554.78 -16.5775 1345 46.8126C1164 101.505 1061 0.99992 834.5 1C608 1.00008 459 101.505 331 101.505C135.5 112.71 -3 46.8125 -3 46.8125V702.128C-3 702.128 508 683.113 822.358 720.157C1185.92 762.999 1634 720.157 1634 720.157C1634 567.798 1623 51.9025 1623 46.8125Z" fill="#424DB0" stroke="#424DB0"/>
<path d="M215.5 683.09C92.2997 658.921 -2.50037 708.704 -2.50037 708.704V865.669C-2.50037 865.669 112.5 954.989 259.5 907.374C406.5 859.758 627.407 842.354 649 842.354C782.999 842.354 911.826 886.166 976.5 880.775C1106.5 869.938 1176.5 810.83 1302.5 842.354C1428.5 873.879 1619 865.669 1619 865.669V656.163C1619 656.163 1580.75 636.902 1506 656.163C1401.5 683.091 1247.5 701.479 1099 666.671C950.499 631.863 767.5 694.583 672 713.301C576.5 732.019 369.5 713.301 215.5 683.09Z" fill="#6372FF" fill-opacity="0.78"/>
<path d="M218.5 623.631C95.2997 599.462 0.499634 649.245 0.499634 649.245V806.21C0.499634 806.21 115.5 895.53 262.5 847.915C409.5 800.3 630.407 782.895 652 782.895C785.999 782.895 914.826 826.707 979.5 821.316C1109.5 810.479 1179.5 751.371 1305.5 782.895C1431.5 814.42 1622 806.21 1622 806.21V596.704C1622 596.704 1583.75 577.443 1509 596.704C1404.5 623.632 1250.5 642.02 1102 607.212C953.499 572.404 770.5 635.124 675 653.842C579.5 672.56 372.5 653.842 218.5 623.631Z" fill="#4A59E1" fill-opacity="0.78"/>
</svg>
