<svg width="1621" height="826" viewBox="0 0 1621 826" fill="none" xmlns="http://www.w3.org/2000/svg">
<path d="M1647 45.9646C1647 45.9646 1340.63 -9.002 1108 107.424C971.937 175.521 789.634 9.98583 459.262 107.424C191.047 186.53 2 93.9333 2 93.9333L2 823C2 823 472.98 715.479 827.358 700.549C1196.03 685.018 1647 823 1647 823V45.9646Z" fill="#424DB0" stroke="#424DB0"/>
<path d="M1645 13.9733C1645 13.9733 1338.63 -41.03 1106 75.4738C969.937 143.617 787.634 -22.0295 457.262 75.4738C189.047 154.633 0 61.9739 0 61.9739L1.89345e-05 825C1.89345e-05 825 470.98 683.934 825.358 668.995C1194.03 653.453 1645 825 1645 825V13.9733Z" fill="#AF6725" stroke="#AF6725"/>
</svg>
