<svg width="1621" height="1403" viewBox="0 0 1621 1403" fill="none" xmlns="http://www.w3.org/2000/svg">
<path d="M1623 70.7554C1623 70.7554 1554.78 -25.764 1345 70.7555C1164 154.032 1061 0.999878 834.5 1C608 1.00012 459 154.032 331 154.032C135.5 171.093 -3 70.7554 -3 70.7554V1068.56C-3 1068.56 508 1039.6 822.358 1096.01C1185.92 1161.24 1634 1096.01 1634 1096.01C1634 864.022 1623 78.5055 1623 70.7554Z" fill="#424DB0" stroke="#424DB0"/>
<path d="M206 851.034C82.8 814.234 -12 890.034 -12 890.034V1129.03C-12 1129.03 103 1265.03 250 1192.53C397 1120.03 617.907 1093.53 639.5 1093.53C773.5 1093.53 902.327 1160.24 967 1152.03C1097 1135.53 1167 1045.53 1293 1093.53C1419 1141.53 1609.5 1129.03 1609.5 1129.03V810.034C1609.5 810.034 1571.25 780.707 1496.5 810.034C1392 851.035 1238 879.034 1089.5 826.034C941 773.034 758 868.534 662.5 897.034C567 925.534 360 897.034 206 851.034Z" fill="#4551BC" fill-opacity="0.78"/>
<path d="M215.5 1039.57C92.2997 1002.77 -2.50037 1078.57 -2.50037 1078.57V1317.57C-2.50037 1317.57 112.5 1453.57 259.5 1381.07C406.5 1308.57 627.407 1282.07 649 1282.07C782.999 1282.07 911.826 1348.78 976.5 1340.57C1106.5 1324.07 1176.5 1234.07 1302.5 1282.07C1428.5 1330.07 1619 1317.57 1619 1317.57V998.569C1619 998.569 1580.75 969.242 1506 998.569C1401.5 1039.57 1247.5 1067.57 1099 1014.57C950.499 961.569 767.5 1057.07 672 1085.57C576.5 1114.07 369.5 1085.57 215.5 1039.57Z" fill="#6372FF" fill-opacity="0.78"/>
</svg>
